<svg xmlns="http://www.w3.org/2000/svg" xmlns:xlink="http://www.w3.org/1999/xlink" width="192" zoomAndPan="magnify" viewBox="0 0 144 143.999998" height="192" preserveAspectRatio="xMidYMid meet" version="1.0"><defs><filter x="0%" y="0%" width="100%" height="100%" id="2632649904"><feColorMatrix values="0 0 0 0 1 0 0 0 0 1 0 0 0 0 1 0 0 0 1 0" color-interpolation-filters="sRGB"/></filter><clipPath id="857bb5c2a1"><path d="M 0 18 L 144 18 L 144 114.71875 L 0 114.71875 Z M 0 18 " clip-rule="nonzero"/></clipPath><mask id="fd86624fa5"><g filter="url(#2632649904)"><rect x="-31.68" width="207.36" fill="#000000" y="-55.679999" height="207.359996" fill-opacity="0.34"/></g></mask><clipPath id="b91639f1e7"><path d="M 3 14 L 141 14 L 141 83 L 3 83 Z M 3 14 " clip-rule="nonzero"/></clipPath><clipPath id="14ca93f68e"><path d="M 148.144531 51.015625 L 131.09375 96.574219 L -4.160156 45.949219 L 12.890625 0.390625 Z M 148.144531 51.015625 " clip-rule="nonzero"/></clipPath><clipPath id="91f4321fc1"><path d="M 139.621094 73.792969 C 144.328125 61.214844 117.867188 39.683594 80.519531 25.703125 C 43.171875 11.722656 9.078125 10.589844 4.367188 23.171875 C -0.339844 35.753906 26.121094 57.285156 63.46875 71.261719 C 100.816406 85.242188 134.910156 86.375 139.621094 73.792969 Z M 139.621094 73.792969 " clip-rule="nonzero"/></clipPath><clipPath id="651ed7ae47"><path d="M 0 0 L 138 0 L 138 69 L 0 69 Z M 0 0 " clip-rule="nonzero"/></clipPath><clipPath id="8444cada56"><path d="M 145.144531 37.015625 L 128.09375 82.574219 L -7.160156 31.949219 L 9.890625 -13.609375 Z M 145.144531 37.015625 " clip-rule="nonzero"/></clipPath><clipPath id="76bfa2c589"><path d="M 136.621094 59.792969 C 141.328125 47.214844 114.867188 25.683594 77.519531 11.703125 C 40.171875 -2.277344 6.078125 -3.410156 1.367188 9.171875 C -3.339844 21.753906 23.121094 43.285156 60.46875 57.261719 C 97.816406 71.242188 131.910156 72.375 136.621094 59.792969 Z M 136.621094 59.792969 " clip-rule="nonzero"/></clipPath><clipPath id="33bff30d43"><rect x="0" width="138" y="0" height="69"/></clipPath><clipPath id="36150f3f21"><rect x="0" width="144" y="0" height="97"/></clipPath><mask id="50294c2de1"><g filter="url(#2632649904)"><rect x="-31.68" width="207.36" fill="#000000" y="-55.679999" height="207.359996" fill-opacity="0.34"/></g></mask><clipPath id="2f79ae0b6a"><path d="M 4 10 L 103 10 L 103 60 L 4 60 Z M 4 10 " clip-rule="nonzero"/></clipPath><clipPath id="a53812afb9"><path d="M 108.640625 36.855469 L 96.359375 69.667969 L -1.058594 33.207031 L 11.222656 0.390625 Z M 108.640625 36.855469 " clip-rule="nonzero"/></clipPath><clipPath id="5d495ee536"><path d="M 102.5 53.261719 C 105.890625 44.199219 86.832031 28.691406 59.933594 18.625 C 33.035156 8.554688 8.476562 7.738281 5.085938 16.800781 C 1.695312 25.863281 20.75 41.371094 47.652344 51.4375 C 74.550781 61.507812 99.109375 62.320312 102.5 53.261719 Z M 102.5 53.261719 " clip-rule="nonzero"/></clipPath><clipPath id="25fb594d1b"><path d="M 0 0 L 99 0 L 99 50 L 0 50 Z M 0 0 " clip-rule="nonzero"/></clipPath><clipPath id="b3b653c330"><path d="M 104.640625 26.855469 L 92.359375 59.667969 L -5.058594 23.207031 L 7.222656 -9.609375 Z M 104.640625 26.855469 " clip-rule="nonzero"/></clipPath><clipPath id="f37d7b04cb"><path d="M 98.5 43.261719 C 101.890625 34.199219 82.832031 18.691406 55.933594 8.625 C 29.035156 -1.445312 4.476562 -2.261719 1.085938 6.800781 C -2.304688 15.863281 16.75 31.371094 43.652344 41.4375 C 70.550781 51.507812 95.109375 52.320312 98.5 43.261719 Z M 98.5 43.261719 " clip-rule="nonzero"/></clipPath><clipPath id="5de88c16c8"><rect x="0" width="99" y="0" height="50"/></clipPath><clipPath id="421fe553e9"><rect x="0" width="109" y="0" height="70"/></clipPath><clipPath id="9a9bfa49d8"><rect x="0" width="144" y="0" height="115"/></clipPath></defs><g transform="matrix(1, 0, 0, 1, 0, 24)"><g clip-path="url(#9a9bfa49d8)"><g clip-path="url(#857bb5c2a1)"><g mask="url(#fd86624fa5)"><g transform="matrix(1, 0, 0, 1, 0, 18)"><g clip-path="url(#36150f3f21)"><g clip-path="url(#b91639f1e7)"><g clip-path="url(#14ca93f68e)"><g clip-path="url(#91f4321fc1)"><g transform="matrix(1, 0, 0, 1, 3, 14)"><g clip-path="url(#33bff30d43)"><g clip-path="url(#651ed7ae47)"><g clip-path="url(#8444cada56)"><g clip-path="url(#76bfa2c589)"><path fill="#ffc035" d="M 145.144531 37.015625 L 128.09375 82.574219 L -7.160156 31.949219 L 9.890625 -13.609375 Z M 145.144531 37.015625 " fill-opacity="1" fill-rule="nonzero"/></g></g></g></g></g></g></g></g></g></g></g></g><g mask="url(#50294c2de1)"><g transform="matrix(1, 0, 0, 1, 0, 18)"><g clip-path="url(#421fe553e9)"><g clip-path="url(#2f79ae0b6a)"><g clip-path="url(#a53812afb9)"><g clip-path="url(#5d495ee536)"><g transform="matrix(1, 0, 0, 1, 4, 10)"><g clip-path="url(#5de88c16c8)"><g clip-path="url(#25fb594d1b)"><g clip-path="url(#b3b653c330)"><g clip-path="url(#f37d7b04cb)"><path fill="#ffc035" d="M 104.640625 26.855469 L 92.359375 59.667969 L -5.058594 23.207031 L 7.222656 -9.609375 Z M 104.640625 26.855469 " fill-opacity="1" fill-rule="nonzero"/></g></g></g></g></g></g></g></g></g></g></g><path fill="#815fd7" d="M 10.683594 45.21875 L 4.1875 41.796875 L 4.261719 37.546875 L 5.058594 36.808594 L 4.976562 13.804688 L 4.972656 13.804688 C 4.972656 13.007812 5.105469 12.257812 5.367188 11.59375 C 5.601562 10.890625 5.988281 10.261719 6.558594 9.746094 C 7.09375 9.238281 6.90625 9.082031 8.78125 8.546875 C 10.683594 7.972656 13.796875 7.289062 17.832031 6.417969 C 21.84375 5.507812 28.292969 4.0625 32.664062 3.277344 C 36.996094 2.480469 39.976562 2.078125 43.777344 1.710938 C 47.546875 1.335938 51.265625 1.121094 55.195312 1.0625 C 59.085938 0.996094 63.683594 0.988281 67.09375 1.25 C 70.507812 1.464844 73.566406 1.832031 75.507812 2.453125 C 77.390625 3.042969 77.558594 3.753906 78.441406 4.945312 C 79.304688 6.125 80.214844 5.976562 80.664062 9.558594 C 81.085938 13.1875 81 20.492188 81.058594 26.371094 C 81.113281 32.195312 81.078125 38.082031 80.980469 44.289062 L 81.929688 45.773438 L 81.769531 52.234375 L 69.550781 52.691406 C 69.121094 53.835938 68.605469 54.773438 67.96875 55.46875 C 67.320312 56.160156 66.703125 56.695312 65.746094 56.855469 C 64.761719 56.976562 63.101562 56.949219 62.171875 56.300781 C 61.226562 55.636719 60.550781 54.539062 60.109375 52.972656 L 42.179688 54.078125 L 34.800781 52.234375 C 34.042969 53.527344 33.3125 54.296875 32.503906 54.539062 C 31.699219 54.773438 30.675781 54.332031 30.046875 53.621094 C 29.390625 52.871094 28.914062 51.726562 28.613281 50.113281 L 14.492188 46.042969 C 14.109375 46.972656 13.695312 47.515625 13.152344 47.714844 C 12.617188 47.890625 11.714844 47.5625 11.324219 47.160156 C 10.890625 46.71875 10.714844 46.109375 10.683594 45.21875 Z M 10.683594 45.21875 " fill-opacity="1" fill-rule="evenodd"/><path fill="#ffffff" d="M 45.203125 2.171875 C 40.296875 2.875 35.355469 3.679688 30.160156 4.628906 C 24.929688 5.574219 18.035156 6.980469 14.257812 7.835938 C 10.507812 8.652344 9.214844 8.761719 7.84375 9.550781 C 6.449219 10.320312 5.867188 11.277344 5.996094 12.457031 C 11.5 11.734375 17.015625 11.070312 22.789062 10.386719 C 28.566406 9.691406 34.289062 9.042969 40.316406 8.40625 C 40.625 7.019531 41.207031 5.789062 42.023438 4.757812 C 42.847656 3.691406 43.871094 2.875 45.203125 2.171875 Z M 45.203125 2.171875 " fill-opacity="1" fill-rule="evenodd"/><path fill="#ffffff" d="M 41.234375 8.734375 C 41.320312 8.089844 41.609375 7.367188 42.105469 6.605469 C 42.574219 5.78125 43.25 4.816406 44.167969 4.113281 C 45.078125 3.417969 45.78125 2.921875 47.582031 2.546875 C 49.371094 2.179688 51.960938 1.972656 54.878906 1.890625 C 57.785156 1.757812 61.898438 1.84375 64.871094 1.890625 C 67.824219 1.917969 70.386719 1.757812 72.410156 2.171875 C 74.378906 2.566406 75.542969 3.164062 76.695312 4.300781 C 77.820312 5.433594 78.628906 6.933594 79.152344 8.914062 C 73.285156 9.054688 67.359375 9.128906 60.980469 9.101562 C 54.585938 9.074219 48.136719 8.949219 41.234375 8.734375 Z M 41.234375 8.734375 " fill-opacity="1" fill-rule="evenodd"/><path fill="#ffffff" d="M 41.394531 9.9375 L 41.46875 30.808594 L 80.027344 30.714844 L 79.792969 10.300781 Z M 41.394531 9.9375 " fill-opacity="1" fill-rule="evenodd"/><path fill="#ffffff" d="M 47.308594 35.703125 C 48.449219 35.703125 49.375 36.777344 49.375 38.101562 C 49.375 39.425781 48.449219 40.503906 47.308594 40.503906 C 46.171875 40.503906 45.246094 39.425781 45.246094 38.101562 C 45.246094 36.777344 46.171875 35.703125 47.308594 35.703125 " fill-opacity="1" fill-rule="evenodd"/><path fill="#ffffff" d="M 52 35.796875 C 53.132812 35.796875 54.050781 36.871094 54.050781 38.195312 C 54.050781 39.519531 53.132812 40.597656 52 40.597656 C 50.863281 40.597656 49.945312 39.519531 49.945312 38.195312 C 49.945312 36.871094 50.863281 35.796875 52 35.796875 " fill-opacity="1" fill-rule="evenodd"/><path fill="#ffffff" d="M 73.441406 35.441406 C 74.492188 35.441406 75.34375 36.4375 75.34375 37.664062 C 75.34375 38.890625 74.492188 39.886719 73.441406 39.886719 C 72.390625 39.886719 71.535156 38.890625 71.535156 37.664062 C 71.535156 36.4375 72.390625 35.441406 73.441406 35.441406 " fill-opacity="1" fill-rule="evenodd"/><path fill="#ffffff" d="M 77.660156 35.441406 C 78.710938 35.441406 79.5625 36.4375 79.5625 37.664062 C 79.5625 38.890625 78.710938 39.886719 77.660156 39.886719 C 76.609375 39.886719 75.757812 38.890625 75.757812 37.664062 C 75.757812 36.4375 76.609375 35.441406 77.660156 35.441406 " fill-opacity="1" fill-rule="evenodd"/><path fill="#ffffff" d="M 41.394531 31.820312 L 41.46875 34.773438 L 80.027344 34.765625 L 79.792969 31.875 Z M 41.394531 31.820312 " fill-opacity="1" fill-rule="evenodd"/><path fill="#ffffff" d="M 41.394531 40.878906 L 41.46875 46.234375 L 80.027344 46.207031 L 79.792969 40.972656 Z M 41.394531 40.878906 " fill-opacity="1" fill-rule="evenodd"/><path fill="#ffffff" d="M 27.027344 10.851562 L 27.027344 25.078125 L 33.609375 25.539062 L 33.609375 10.300781 Z M 27.027344 10.851562 " fill-opacity="1" fill-rule="evenodd"/><path fill="#ffffff" d="M 19.660156 11.78125 L 19.660156 24.621094 L 25.921875 24.890625 L 25.921875 11.136719 Z M 19.660156 11.78125 " fill-opacity="1" fill-rule="evenodd"/><path fill="#ffffff" d="M 12.710938 12.757812 L 12.859375 24.261719 L 18.066406 24.339844 L 18.1875 12.101562 Z M 12.710938 12.757812 " fill-opacity="1" fill-rule="evenodd"/><path fill="#ffffff" d="M 5.921875 13.46875 L 5.921875 24 L 11.164062 24.066406 L 11.164062 13.066406 Z M 5.921875 13.46875 " fill-opacity="1" fill-rule="evenodd"/><path fill="#ffffff" d="M 6.164062 25.171875 L 33.78125 26.652344 L 33.855469 32.007812 L 6.164062 29.417969 Z M 6.164062 25.171875 " fill-opacity="1" fill-rule="evenodd"/><path fill="#ffffff" d="M 6.164062 30.804688 L 6.164062 41.890625 L 9.972656 43.925781 C 9.726562 40.792969 9.726562 38.476562 9.972656 36.902344 C 10.214844 35.335938 10.835938 34.886719 11.398438 34.5 C 11.921875 34.042969 12.578125 33.769531 13.152344 34.40625 C 13.6875 35.0625 14.453125 36.59375 14.734375 38.382812 C 15 40.15625 15 42.292969 14.734375 44.9375 L 28.613281 49.183594 C 28.152344 46.382812 28.085938 44.140625 28.378906 42.351562 C 28.660156 40.539062 29.625 39.039062 30.367188 38.46875 C 31.097656 37.90625 32.128906 38.363281 32.738281 38.9375 C 33.3125 39.472656 33.742188 40.378906 33.929688 41.703125 L 33.929688 33.761719 C 24.675781 32.777344 15.421875 31.792969 6.167969 30.804688 Z M 6.164062 30.804688 " fill-opacity="1" fill-rule="evenodd"/><path fill="#ffffff" d="M 34.960938 10.113281 L 40.203125 9.652344 L 40.203125 52.234375 L 35.046875 50.667969 Z M 34.960938 10.113281 " fill-opacity="1" fill-rule="evenodd"/><path fill="#ffffff" d="M 41.976562 10.917969 L 58.09375 10.917969 C 56.230469 11.320312 55.011719 12.007812 54.363281 12.933594 C 53.734375 13.863281 55.28125 15.859375 54.230469 16.507812 C 53.125 17.125 48.726562 15.859375 47.835938 16.65625 C 46.964844 17.433594 49.851562 19.816406 48.90625 21.15625 C 47.902344 22.46875 45.644531 23.59375 41.976562 24.570312 Z M 41.976562 10.917969 " fill-opacity="1" fill-rule="evenodd"/><path fill="#ffffff" d="M 17.464844 7.667969 C 20.109375 6.972656 26.128906 5.933594 29.851562 5.339844 C 33.546875 4.722656 38.007812 3.886719 39.445312 4.101562 C 40.792969 4.320312 39.601562 6.109375 38.113281 6.578125 C 36.582031 7.011719 32.195312 6.316406 30.515625 6.738281 C 28.859375 7.140625 29.953125 8.6875 28.125 9.0625 C 26.230469 9.402344 21.261719 8.828125 19.332031 8.902344 C 17.40625 8.980469 17.519531 9.429688 16.667969 9.53125 C 15.777344 9.625 14.003906 9.644531 14.136719 9.371094 C 14.265625 9.0625 14.820312 8.3125 17.464844 7.667969 Z M 17.464844 7.667969 " fill-opacity="1" fill-rule="evenodd"/></g></g></svg>